HIERARCHY
ROOT joint_Root
{
	OFFSET 0.0 0.0 0.0
	CHANNELS 6 Xposition Yposition Zposition Zrotation Xrotation Yrotation 
	JOINT Hips
	{
		OFFSET -0.726466 93.3139 -2.00062
		CHANNELS 6 Xposition Yposition Zposition Zrotation Xrotation Yrotation 
		JOINT Spine
		{
			OFFSET 15.7357 0.0 0.0
			CHANNELS 6 Xposition Yposition Zposition Zrotation Xrotation Yrotation 
			JOINT Chest
			{
				OFFSET 8.98455 -0.406207 0.0
				CHANNELS 6 Xposition Yposition Zposition Zrotation Xrotation Yrotation 
				JOINT Neck
				{
					OFFSET 16.3773 0.0 0.0
					CHANNELS 6 Xposition Yposition Zposition Zrotation Xrotation Yrotation 
					JOINT Head
					{
						OFFSET 6.45672 0.0 0.0
						CHANNELS 6 Xposition Yposition Zposition Zrotation Xrotation Yrotation 
						End Site
						{
							OFFSET 0.0 0.0 0.0
						}
					}
				}
				JOINT Shoulder_L
				{
					OFFSET 12.9942 -0.242716 4.98039
					CHANNELS 6 Xposition Yposition Zposition Zrotation Xrotation Yrotation 
					JOINT UpperArm_L
					{
						OFFSET 5.34809 0.0 0.0
						CHANNELS 6 Xposition Yposition Zposition Zrotation Xrotation Yrotation 
						JOINT LowerArm_L
						{
							OFFSET 24.3286 1.87007e-05 0.0
							CHANNELS 6 Xposition Yposition Zposition Zrotation Xrotation Yrotation 
							JOINT Hand_L
							{
								OFFSET 22.2916 0.0 0.0
								CHANNELS 6 Xposition Yposition Zposition Zrotation Xrotation Yrotation 
								End Site
								{
									OFFSET 0.0 0.0 0.0
								}
							}
						}
					}
				}
				JOINT Shoulder_R
				{
					OFFSET 12.9945 -0.242716 -4.98039
					CHANNELS 6 Xposition Yposition Zposition Zrotation Xrotation Yrotation 
					JOINT UpperArm_R
					{
						OFFSET -5.34813 0.0 0.0
						CHANNELS 6 Xposition Yposition Zposition Zrotation Xrotation Yrotation 
						JOINT LowerArm_R
						{
							OFFSET -24.3289 0.000322201 0.0
							CHANNELS 6 Xposition Yposition Zposition Zrotation Xrotation Yrotation 
							JOINT Hand_R
							{
								OFFSET -22.2915 -0.000108084 0.0
								CHANNELS 6 Xposition Yposition Zposition Zrotation Xrotation Yrotation 
								End Site
								{
									OFFSET 0.0 0.0 0.0
								}
							}
						}
					}
				}
			}
		}
		JOINT UpperLeg_L
		{
			OFFSET -2.19248 -6.46944 0.0
			CHANNELS 6 Xposition Yposition Zposition Zrotation Xrotation Yrotation 
			JOINT LowerLeg_L
			{
				OFFSET 39.0811 0.0 -1.23785e-05
				CHANNELS 6 Xposition Yposition Zposition Zrotation Xrotation Yrotation 
				JOINT Foot_L
				{
					OFFSET 40.9854 0.0 -1.26872e-05
					CHANNELS 6 Xposition Yposition Zposition Zrotation Xrotation Yrotation 
					JOINT Toes_L
					{
						OFFSET 11.7543 0.0 0.0
						CHANNELS 6 Xposition Yposition Zposition Zrotation Xrotation Yrotation 
						End Site
						{
							OFFSET 0.0 0.0 0.0
						}
					}
				}
			}
		}
		JOINT UpperLeg_R
		{
			OFFSET -2.19251 6.46944 0.0
			CHANNELS 6 Xposition Yposition Zposition Zrotation Xrotation Yrotation 
			JOINT LowerLeg_R
			{
				OFFSET -39.0811 -0.00228153 -0.0401928
				CHANNELS 6 Xposition Yposition Zposition Zrotation Xrotation Yrotation 
				JOINT Foot_R
				{
					OFFSET -40.9854 0.0 0.0
					CHANNELS 6 Xposition Yposition Zposition Zrotation Xrotation Yrotation 
					JOINT Toes_R
					{
						OFFSET -11.7543 0.0 0.0
						CHANNELS 6 Xposition Yposition Zposition Zrotation Xrotation Yrotation 
						End Site
						{
							OFFSET 0.0 0.0 0.0
						}
					}
				}
			}
		}
	}
}
MOTION
Frames:	4
Frame Time:	0.0333333
0.000000 0.000000 0.000000 0.000000 0.000000 -0.000000 -0.817683 92.339000 -0.911261 88.202100 -0.488395 3.929370 15.735700 0.000005 -0.000001 78.938500 86.458100 -78.419200 8.984550 -0.406207 -0.000000 -0.807259 -1.397680 1.028310 16.377300 -0.000001 -0.000001 4.105540 -1.768950 0.385651 6.456720 -0.000001 -0.000000 7.195580 -1.897370 -1.050950 12.994200 -0.242716 4.980390 -87.272500 -8.663640 -72.449700 5.348090 -0.000007 -0.000001 -84.843200 -30.649600 -91.702300 24.328600 0.000019 0.000005 12.917200 0.135775 -89.408000 22.291600 -0.000001 0.000005 22.259100 5.621790 -12.744600 12.994500 -0.242716 -4.980390 90.844400 -2.899370 -73.755500 -5.348130 -0.000001 -0.000004 -76.604000 -27.886300 -98.086100 -24.328900 0.000322 -0.000009 20.050000 2.325560 -83.656700 -22.291500 -0.000108 -0.000004 24.432500 5.423540 -3.718480 -2.192480 -6.469440 -0.000000 -175.656000 -6.446120 -2.483170 39.081100 -0.000007 -0.000012 -0.101005 0.244599 22.437800 40.985400 -0.000006 -0.000013 -0.351803 3.057500 -66.224000 11.754300 -0.000000 0.000003 -0.000042 -0.000484 -16.596400 -2.192510 6.469440 -0.000001 179.676000 15.339000 -179.274000 -39.081100 -0.002282 -0.040193 0.009752 -0.018712 18.961600 -40.985400 0.000008 0.000006 4.803400 5.992440 -66.352600 -11.754300 -0.000006 -0.000006 -0.006072 -0.071489 -19.482600
0.000000 0.000000 0.000000 0.000000 0.000000 -0.000000 -0.798742 92.333300 -0.916646 88.188500 -0.393965 3.869190 15.735700 0.000005 -0.000001 78.773300 86.441800 -78.214800 8.984550 -0.406207 -0.000000 -0.778494 -1.426870 1.106930 16.377300 -0.000001 -0.000001 4.030400 -1.728810 0.346046 6.456720 -0.000001 -0.000000 7.230910 -1.816340 -1.172250 12.994200 -0.242716 4.980390 -87.313300 -8.549020 -72.480500 5.348090 -0.000007 -0.000001 -84.581500 -30.871000 -90.934600 24.328600 0.000019 0.000005 12.857800 0.023720 -89.896000 22.291600 -0.000001 0.000005 22.243100 5.621680 -12.736700 12.994500 -0.242716 -4.980390 90.825700 -2.813670 -73.638200 -5.348130 -0.000001 -0.000004 -75.824200 -28.177700 -97.491100 -24.328900 0.000322 -0.000009 19.831100 2.141620 -84.085200 -22.291500 -0.000108 -0.000004 24.568200 5.424140 -3.739120 -2.192480 -6.469440 -0.000000 -175.661000 -6.435900 -2.608120 39.081100 -0.000007 -0.000012 -0.100592 0.242686 22.513900 40.985400 -0.000006 -0.000013 -0.320281 3.131490 -66.242400 11.754300 -0.000000 0.000003 -0.000040 -0.000468 -16.595800 -2.192510 6.469440 -0.000001 179.699000 15.345800 -179.351000 -39.081100 -0.002282 -0.040193 0.010013 -0.019430 18.998700 -40.985400 0.000008 0.000006 4.806930 5.904820 -66.371700 -11.754300 -0.000006 -0.000006 -0.006239 -0.072992 -19.543900
0.000000 0.000000 0.000000 0.000000 0.000000 -0.000000 -0.779096 92.340100 -0.924370 88.215500 -0.336552 3.837530 15.735700 0.000005 -0.000001 78.955700 86.406600 -78.380900 8.984550 -0.406207 -0.000000 -0.704995 -1.418940 1.140470 16.377300 -0.000001 -0.000001 3.920440 -1.717640 0.346026 6.456720 -0.000001 -0.000000 7.187210 -1.738510 -1.291390 12.994200 -0.242716 4.980390 -87.369100 -8.349430 -72.440400 5.348090 -0.000007 -0.000001 -83.962300 -30.948300 -89.614100 24.328600 0.000019 0.000005 12.475100 -0.134986 -90.610600 22.291600 -0.000001 0.000005 22.534600 5.623110 -12.836200 12.994500 -0.242716 -4.980390 90.775900 -2.617880 -73.485000 -5.348130 -0.000001 -0.000004 -74.529800 -28.590000 -96.312400 -24.328900 0.000322 -0.000009 19.652700 1.819920 -84.919200 -22.291500 -0.000108 -0.000004 24.499700 5.418160 -3.536800 -2.192480 -6.469440 -0.000000 -175.710000 -6.429460 -2.619300 39.081100 -0.000007 -0.000012 -0.098932 0.239396 22.453300 40.985400 -0.000006 -0.000013 -0.293420 3.172770 -66.208000 11.754300 -0.000000 0.000003 -0.000045 -0.000515 -16.597600 -2.192510 6.469440 -0.000001 179.672000 15.334300 -179.379000 -39.081100 -0.002282 -0.040193 0.009592 -0.018232 18.975500 -40.985400 0.000008 0.000006 4.792270 5.856260 -66.350100 -11.754300 -0.000006 -0.000006 -0.006207 -0.072705 -19.532300
0.000000 0.000000 0.000000 0.000000 0.000000 -0.000000 -0.759433 92.343900 -0.952125 88.239300 -0.299906 3.787790 15.735700 0.000005 -0.000001 79.252600 86.363400 -78.670300 8.984550 -0.406207 -0.000000 -0.612958 -1.398590 1.156580 16.377300 -0.000001 -0.000001 3.770790 -1.711520 0.379989 6.456720 -0.000001 -0.000000 6.993470 -1.684830 -1.337230 12.994200 -0.242716 4.980390 -87.453700 -8.012790 -72.305400 5.348090 -0.000007 -0.000001 -82.370800 -30.822100 -87.314300 24.328600 0.000019 0.000005 11.658100 -0.326366 -91.582300 22.291600 -0.000001 0.000005 23.489400 5.626180 -13.053000 12.994500 -0.242716 -4.980390 90.688200 -2.295240 -73.303700 -5.348130 -0.000001 -0.000004 -72.641300 -28.992100 -94.302700 -24.328900 0.000322 -0.000009 19.340700 1.336950 -86.198200 -22.291500 -0.000108 -0.000004 24.080200 5.411230 -3.305490 -2.192480 -6.469440 -0.000000 -175.758000 -6.390350 -2.689910 39.081100 -0.000007 -0.000012 -0.099724 0.241545 22.433800 40.985400 -0.000006 -0.000013 -0.285562 3.150010 -66.172100 11.754300 -0.000000 0.000003 -0.000041 -0.000478 -16.596100 -2.192510 6.469440 -0.000001 179.640000 15.364700 -179.442000 -39.081100 -0.002282 -0.040193 0.007336 -0.011676 18.967300 -40.985400 0.000008 0.000006 4.662130 5.861760 -66.309100 -11.754300 -0.000006 -0.000006 -0.006258 -0.073159 -19.550800
